<svg id="Capa_1" enable-background="new 0 0 512 512" height="512" viewBox="0 0 512 512" width="512" xmlns="http://www.w3.org/2000/svg"><g><path d="m0 48.525v146.475h256l-166.503-170.469z" fill="#ff4c3b"/><path d="m512 195v-146.475l-89.497-23.994-166.503 170.469z" fill="#c44e46"/><path d="m431.472 382.328-40.142-113.955 31.173-243.841-91.503-24.532-195 40 120 472h195v-15c0-39.313-6.57-77.895-19.528-114.672z" fill="#ff4c3b"/><path d="m181 0-91.503 24.531 31.173 243.841-40.141 113.955c-12.959 36.777-19.529 75.359-19.529 114.673v15h195v-482z" fill="#ff6f61"/><path d="m331 0h-75l-30 37.5 30 37.5c41.421 0 75-33.579 75-75z" fill="#c44e46"/><path d="m256 75v-75h-75c0 41.421 33.579 75 75 75z" fill="#ff4c3b"/></g></svg>